<?xml version="1.0" encoding="UTF-8" standalone="no"?>
<!-- Created with Inkscape (http://www.inkscape.org/) -->

<svg
   width="105mm"
   height="148mm"
   viewBox="0 0 105 148"
   version="1.1"
   id="svg1"
   xml:space="preserve"
   inkscape:version="1.4.2 (f4327f4, 2025-05-13)"
   sodipodi:docname="A6_back_hospitality.svg"
   inkscape:export-filename="A6_back_hospitality.png"
   inkscape:export-xdpi="600"
   inkscape:export-ydpi="600"
   xmlns:inkscape="http://www.inkscape.org/namespaces/inkscape"
   xmlns:sodipodi="http://sodipodi.sourceforge.net/DTD/sodipodi-0.dtd"
   xmlns:xlink="http://www.w3.org/1999/xlink"
   xmlns="http://www.w3.org/2000/svg"
   xmlns:svg="http://www.w3.org/2000/svg"><sodipodi:namedview
     id="namedview1"
     pagecolor="#ffffff"
     bordercolor="#666666"
     borderopacity="1.0"
     inkscape:showpageshadow="2"
     inkscape:pageopacity="0.0"
     inkscape:pagecheckerboard="0"
     inkscape:deskcolor="#d1d1d1"
     inkscape:document-units="mm"
     inkscape:zoom="1.4142136"
     inkscape:cx="177.83735"
     inkscape:cy="276.8323"
     inkscape:window-width="1902"
     inkscape:window-height="1033"
     inkscape:window-x="0"
     inkscape:window-y="0"
     inkscape:window-maximized="0"
     inkscape:current-layer="g77"
     showgrid="false"
     showguides="true" /><defs
     id="defs1"><inkscape:path-effect
       effect="fillet_chamfer"
       id="path-effect1"
       is_visible="true"
       lpeversion="1"
       nodesatellites_param="F,0,0,1,0,0,0,1 @ F,0,0,1,0,0,0,1 @ F,0,0,1,0,0,0,1 @ F,0,0,1,0,0,0,1"
       radius="0"
       unit="px"
       method="auto"
       mode="F"
       chamfer_steps="1"
       flexible="false"
       use_knot_distance="true"
       apply_no_radius="true"
       apply_with_radius="true"
       only_selected="false"
       hide_knots="false" /><linearGradient
       id="linearGradient48"
       inkscape:collect="always"><stop
         style="stop-color:#000000;stop-opacity:1;"
         offset="0.56052715"
         id="stop47" /><stop
         style="stop-color:#38ba39;stop-opacity:0.96296299;"
         offset="0.91896015"
         id="stop48" /></linearGradient><linearGradient
       id="linearGradient26"
       inkscape:collect="always"><stop
         style="stop-color:#000000;stop-opacity:1;"
         offset="0.30103806"
         id="stop23" /><stop
         style="stop-color:#67ff69;stop-opacity:0.96296299;"
         offset="0.75778538"
         id="stop26" /></linearGradient><rect
       x="321.39371"
       y="167.77156"
       width="7.4115949"
       height="87.591576"
       id="rect3" /><linearGradient
       id="linearGradient25"
       inkscape:collect="always"><stop
         style="stop-color:#a8f8b3;stop-opacity:1;"
         offset="0"
         id="stop24" /><stop
         style="stop-color:#94ff94;stop-opacity:0.96296299;"
         offset="0.65459126"
         id="stop25" /></linearGradient><linearGradient
       id="linearGradient19"
       inkscape:collect="always"><stop
         style="stop-color:#000000;stop-opacity:1;"
         offset="0"
         id="stop18" /><stop
         style="stop-color:#00d802;stop-opacity:0.96296299;"
         offset="0.75287133"
         id="stop19" /></linearGradient><linearGradient
       id="linearGradient16"
       inkscape:collect="always"><stop
         style="stop-color:#000000;stop-opacity:1;"
         offset="0.30103806"
         id="stop15" /><stop
         style="stop-color:#40ff42;stop-opacity:0.96296299;"
         offset="0.75778538"
         id="stop16" /></linearGradient><linearGradient
       id="linearGradient4"
       inkscape:collect="always"><stop
         style="stop-color:#000000;stop-opacity:1;"
         offset="0.50511622"
         id="stop3" /><stop
         style="stop-color:#00be02;stop-opacity:0.96296299;"
         offset="0.89680576"
         id="stop4" /></linearGradient><linearGradient
       inkscape:collect="always"
       xlink:href="#linearGradient48"
       id="linearGradient2"
       x1="67.293419"
       y1="202.13438"
       x2="42.700012"
       y2="75.612289"
       gradientUnits="userSpaceOnUse"
       gradientTransform="matrix(0.96885649,0,0,0.91306727,-0.76145256,38.958204)" /><linearGradient
       inkscape:collect="always"
       xlink:href="#linearGradient4"
       id="linearGradient3"
       gradientUnits="userSpaceOnUse"
       gradientTransform="matrix(2.1227465,0,0,0.45759782,-56.354749,84.07973)"
       x1="67.293419"
       y1="202.13438"
       x2="42.700012"
       y2="75.612289" /><filter
       y="0"
       height="1"
       inkscape:menu-tooltip="Darkens the edge with an inner blur and adds a flexible glow"
       inkscape:menu="Shadows and Glows"
       inkscape:label="Dark and Glow"
       style="color-interpolation-filters:sRGB"
       id="filter5"
       x="0"
       width="1"><feColorMatrix
         values="1 0 0 0 0 0 1 0 0 0 0 0 1 0 0 0 0 0 1 0 "
         result="result10"
         id="feColorMatrix5" /></filter><filter
       inkscape:label="Glowing Bubble"
       inkscape:menu="Ridges"
       inkscape:menu-tooltip="Bubble effect with refraction and glow"
       x="-0.23275635"
       y="-0.42495665"
       width="1.4655128"
       height="1.8499134"
       style="color-interpolation-filters:sRGB"
       id="filter10"><feGaussianBlur
         stdDeviation="1"
         result="result1"
         id="feGaussianBlur5" /><feGaussianBlur
         stdDeviation="10"
         result="result6"
         in="result1"
         id="feGaussianBlur6" /><feComposite
         operator="atop"
         in="result6"
         in2="result1"
         result="result8"
         id="feComposite6" /><feComposite
         operator="xor"
         result="fbSourceGraphic"
         in="result6"
         in2="result8"
         id="feComposite7" /><feColorMatrix
         result="fbSourceGraphicAlpha"
         in="fbSourceGraphic"
         values="0 0 0 -1 0 0 0 0 -1 0 0 0 0 -1 0 0 0 0 2 0 "
         id="feColorMatrix7" /><feGaussianBlur
         result="result0"
         in="fbSourceGraphicAlpha"
         stdDeviation="1"
         id="feGaussianBlur7" /><feSpecularLighting
         specularExponent="35"
         specularConstant="1.5"
         surfaceScale="-2"
         lighting-color="#ffffff"
         result="result1"
         in="result0"
         id="feSpecularLighting7"><feDistantLight
           azimuth="230"
           elevation="60"
           id="feDistantLight7" /></feSpecularLighting><feComposite
         operator="in"
         result="result2"
         in="result1"
         in2="fbSourceGraphicAlpha"
         id="feComposite8" /><feComposite
         k3="1.2"
         k2="1.1"
         operator="arithmetic"
         result="result4"
         in="fbSourceGraphic"
         in2="result2"
         id="feComposite9"
         k1="0"
         k4="0" /><feGaussianBlur
         result="result80"
         in="result4"
         stdDeviation="0.5"
         id="feGaussianBlur9" /><feComposite
         operator="atop"
         in="result9"
         in2="result80"
         result="result91"
         id="feComposite10" /><feBlend
         mode="multiply"
         in2="result91"
         id="feBlend10" /></filter><filter
       inkscape:label="Dragee"
       inkscape:menu="Ridges"
       inkscape:menu-tooltip="Gel Ridge with a pearlescent look"
       height="1.578621"
       width="1.316921"
       y="-0.28931049"
       x="-0.15846051"
       style="color-interpolation-filters:sRGB"
       id="filter14"><feGaussianBlur
         stdDeviation="0.01"
         result="result1"
         id="feGaussianBlur10" /><feBlend
         in="result1"
         mode="screen"
         result="result5"
         in2="result1"
         id="feBlend11" /><feGaussianBlur
         stdDeviation="6"
         result="result6"
         id="feGaussianBlur11" /><feComposite
         operator="xor"
         result="fbSourceGraphic"
         in="result6"
         in2="result6"
         id="feComposite11" /><feColorMatrix
         result="fbSourceGraphicAlpha"
         in="fbSourceGraphic"
         values="0 0 0 -1 0 0 0 0 -1 0 0 0 0 -1 0 0 0 0 2 0 "
         id="feColorMatrix11" /><feGaussianBlur
         result="result0"
         in="fbSourceGraphicAlpha"
         stdDeviation="2"
         id="feGaussianBlur12" /><feSpecularLighting
         specularExponent="35"
         specularConstant="1"
         surfaceScale="3"
         lighting-color="#ffffff"
         result="result1"
         in="result0"
         id="feSpecularLighting12"><feDistantLight
           azimuth="235"
           elevation="55"
           id="feDistantLight12" /></feSpecularLighting><feComposite
         operator="in"
         result="result2"
         in="result1"
         in2="fbSourceGraphicAlpha"
         id="feComposite12" /><feComposite
         k3="2"
         k2="1.3"
         operator="arithmetic"
         result="result4"
         in="fbSourceGraphic"
         in2="result2"
         id="feComposite13"
         k1="0"
         k4="0" /><feGaussianBlur
         result="result80"
         in="result4"
         stdDeviation="0.5"
         id="feGaussianBlur13" /><feComposite
         operator="out"
         in="result9"
         in2="result80"
         result="result91"
         id="feComposite14" /><feBlend
         mode="multiply"
         in2="result91"
         id="feBlend14" /></filter><filter
       inkscape:menu-tooltip="In and out glow with a possible offset and colorizable flood"
       inkscape:menu="Shadows and Glows"
       inkscape:label="Cutout Glow"
       style="color-interpolation-filters:sRGB"
       id="filter15"
       x="-0.055861522"
       y="-0.1019896"
       width="1.1194816"
       height="1.2181444"><feOffset
         dy="1"
         dx="1"
         id="feOffset14"
         preserveAlpha="false" /><feGaussianBlur
         stdDeviation="3"
         result="blur"
         id="feGaussianBlur14" /><feFlood
         flood-color="rgb(0,0,0)"
         flood-opacity="1"
         result="flood"
         id="feFlood14" /><feComposite
         in="flood"
         in2="SourceGraphic"
         operator="in"
         result="composite"
         id="feComposite15" /><feBlend
         in="blur"
         in2="composite"
         mode="normal"
         id="feBlend15" /></filter><linearGradient
       inkscape:collect="always"
       xlink:href="#linearGradient16"
       id="linearGradient15"
       gradientUnits="userSpaceOnUse"
       gradientTransform="matrix(-1.3762798,0,0,-0.62999514,128.43041,201.89144)"
       x1="67.293419"
       y1="202.13438"
       x2="42.700012"
       y2="75.612289" /><linearGradient
       inkscape:collect="always"
       xlink:href="#linearGradient26"
       id="linearGradient17"
       gradientUnits="userSpaceOnUse"
       gradientTransform="matrix(-1.3725732,0,0,-0.62999514,124.46965,179.77447)"
       x1="67.293419"
       y1="202.13438"
       x2="42.700012"
       y2="75.612289" /><linearGradient
       inkscape:collect="always"
       xlink:href="#linearGradient19"
       id="linearGradient18"
       gradientUnits="userSpaceOnUse"
       gradientTransform="matrix(-0.91195918,0,0,-0.62999514,99.428938,188.83431)"
       x1="70.587402"
       y1="201.40408"
       x2="39.406055"
       y2="76.342537" /><linearGradient
       inkscape:collect="always"
       xlink:href="#linearGradient25"
       id="linearGradient20"
       gradientUnits="userSpaceOnUse"
       gradientTransform="matrix(-0.88526456,0,0,-0.97904649,100.96537,222.74553)"
       x1="70.587402"
       y1="201.40408"
       x2="39.406055"
       y2="76.342537" /><filter
       y="-0.39296317"
       height="1.7859263"
       inkscape:menu-tooltip="Darkens the edge with an inner blur and adds a flexible glow"
       inkscape:menu="Shadows and Glows"
       inkscape:label="Dark and Glow"
       style="color-interpolation-filters:sRGB"
       id="filter22"
       x="-0.36349091"
       width="1.7269818"><feComposite
         result="result8"
         in="SourceGraphic"
         operator="atop"
         in2="result6"
         id="feComposite21" /><feComposite
         result="result9"
         operator="over"
         in2="SourceAlpha"
         in="result8"
         id="feComposite22" /><feColorMatrix
         values="1 0 0 0 0 0 1 0 0 0 0 0 1 0 0 0 0 0 1 0 "
         result="result10"
         id="feColorMatrix22" /><feBlend
         in="result10"
         mode="normal"
         in2="result6"
         id="feBlend22" /><feGaussianBlur
         stdDeviation="1.0800000000000001"
         result="result6"
         id="feGaussianBlur22" /></filter><filter
       inkscape:label="Dots Transparency"
       inkscape:menu="Overlays"
       inkscape:menu-tooltip="Gives a pointillist HSL sensitive transparency"
       style="color-interpolation-filters:sRGB"
       id="filter28"
       x="0"
       y="0"
       width="1"
       height="1"><feTurbulence
         result="result1"
         numOctaves="10"
         baseFrequency="10"
         type="fractalNoise"
         seed="323"
         id="feTurbulence26" /><feColorMatrix
         result="result0"
         in="SourceGraphic"
         type="luminanceToAlpha"
         id="feColorMatrix26" /><feColorMatrix
         values="1 0 0 0 0 0 1 0 0 0 0 0 1 0 0 0 0 0 0.7 0 "
         result="result2"
         id="feColorMatrix27" /><feComposite
         in="result1"
         operator="over"
         in2="result2"
         result="result3"
         id="feComposite27" /><feColorMatrix
         values="1 0 0 0 0 0 1 0 0 0 0 0 1 0 0 0 0 0 5 -3.2 "
         result="result91"
         id="feColorMatrix28" /><feComposite
         operator="out"
         in="SourceGraphic"
         result="result4"
         in2="result91"
         id="feComposite28" /></filter><linearGradient
       inkscape:collect="always"
       xlink:href="#linearGradient37"
       id="linearGradient38"
       x1="106.29398"
       y1="100.6379"
       x2="98.099907"
       y2="77.226212"
       gradientUnits="userSpaceOnUse"
       gradientTransform="matrix(0.22197026,0,0,0.22197026,39.118342,3.0375645)" /><linearGradient
       id="linearGradient37"
       inkscape:collect="always"><stop
         style="stop-color:#89a02c;stop-opacity:1;"
         offset="0"
         id="stop37" /><stop
         style="stop-color:#d5e59c;stop-opacity:1;"
         offset="1"
         id="stop38" /></linearGradient><linearGradient
       inkscape:collect="always"
       xlink:href="#linearGradient33"
       id="linearGradient34"
       x1="26.617464"
       y1="26.407364"
       x2="32.99345"
       y2="32.783352"
       gradientUnits="userSpaceOnUse"
       gradientTransform="matrix(0.22197026,0,0,0.22197026,17.827443,13.735691)" /><linearGradient
       id="linearGradient33"
       inkscape:collect="always"><stop
         style="stop-color:#c6da77;stop-opacity:1;"
         offset="0"
         id="stop33" /><stop
         style="stop-color:#47b832;stop-opacity:1"
         offset="1"
         id="stop34" /></linearGradient><linearGradient
       inkscape:collect="always"
       xlink:href="#linearGradient25-9"
       id="linearGradient26-4"
       x1="57.635044"
       y1="88.168365"
       x2="45.479698"
       y2="19.231955"
       gradientUnits="userSpaceOnUse"
       gradientTransform="matrix(0.22197026,0,0,0.22197026,9.7409711,7.9156697)" /><linearGradient
       id="linearGradient25-9"
       inkscape:collect="always"><stop
         style="stop-color:#44b730;stop-opacity:1;"
         offset="0"
         id="stop25-6" /><stop
         style="stop-color:#cee48f;stop-opacity:1;"
         offset="1"
         id="stop26-3" /></linearGradient><filter
       y="-0.39296317"
       height="1.7859263"
       inkscape:menu-tooltip="Darkens the edge with an inner blur and adds a flexible glow"
       inkscape:menu="Shadows and Glows"
       inkscape:label="Dark and Glow"
       style="color-interpolation-filters:sRGB"
       id="filter22-1"
       x="-0.36349091"
       width="1.7269818"><feComposite
         result="result8"
         in="SourceGraphic"
         operator="atop"
         in2="result6"
         id="feComposite21-5" /><feComposite
         result="result9"
         operator="over"
         in2="SourceAlpha"
         in="result8"
         id="feComposite22-4" /><feColorMatrix
         values="1 0 0 0 0 0 1 0 0 0 0 0 1 0 0 0 0 0 1 0 "
         result="result10"
         id="feColorMatrix22-2" /><feBlend
         in="result10"
         mode="normal"
         in2="result6"
         id="feBlend22-0" /><feGaussianBlur
         stdDeviation="1.0800000000000001"
         result="result6"
         id="feGaussianBlur22-9" /></filter><linearGradient
       inkscape:collect="always"
       xlink:href="#linearGradient16"
       id="linearGradient42"
       gradientUnits="userSpaceOnUse"
       gradientTransform="matrix(1.3763882,0,0,0.62999514,-23.208684,-70.023793)"
       x1="67.293419"
       y1="202.13438"
       x2="42.700012"
       y2="75.612289" /><linearGradient
       inkscape:collect="always"
       xlink:href="#linearGradient26"
       id="linearGradient43"
       gradientUnits="userSpaceOnUse"
       gradientTransform="matrix(1.3743077,0,0,0.62999514,-19.395217,-47.906824)"
       x1="67.293419"
       y1="202.13438"
       x2="42.700012"
       y2="75.612289" /><linearGradient
       inkscape:collect="always"
       xlink:href="#linearGradient19"
       id="linearGradient44"
       gradientUnits="userSpaceOnUse"
       gradientTransform="matrix(0.91188736,0,0,0.62999514,5.764046,-56.966658)"
       x1="70.587402"
       y1="201.40408"
       x2="39.406055"
       y2="76.342537" /><linearGradient
       inkscape:collect="always"
       xlink:href="#linearGradient25"
       id="linearGradient45"
       gradientUnits="userSpaceOnUse"
       gradientTransform="matrix(0.88498571,0,0,0.97904649,4.250671,-90.877879)"
       x1="70.587402"
       y1="201.40408"
       x2="39.406055"
       y2="76.342537" /></defs><g
     inkscape:label="Laag 1"
     inkscape:groupmode="layer"
     id="layer1"
     style="display:inline" /><g
     inkscape:groupmode="layer"
     id="layer2"
     inkscape:label="Laag 2"
     style="display:inline"><path
       id="path1-1-1"
       style="fill:url(#linearGradient15);stroke-width:0.246367"
       d="M 52.739711,89.46861 A 88.694459,24.932833 0 0 0 3.842606,93.599954 v 41.603516 a 88.694459,24.932833 0 0 0 48.897105,4.13134 88.694459,24.932833 0 0 0 48.614099,-4.0786 V 93.547213 A 88.694459,24.932833 0 0 0 52.739711,89.46861 Z" /><path
       id="path1-1-1-8"
       style="fill:url(#linearGradient17);stroke-width:0.246035"
       d="M 48.982539,67.351905 A 88.455591,24.932833 0 0 0 3.8700195,70.838153 v 42.893277 a 88.455591,24.932833 0 0 0 45.1125195,3.48626 88.455591,24.932833 0 0 0 52.279111,-4.82041 V 72.172294 A 88.455591,24.932833 0 0 0 48.982539,67.351905 Z" /><path
       id="path1-1-1-8-4"
       style="fill:url(#linearGradient18);stroke-width:0.200548"
       d="M 49.273963,76.411414 A 58.77128,24.932833 0 0 0 3.8450064,85.526253 v 31.636037 a 58.77128,24.932833 0 0 0 45.4289566,9.11532 58.77128,24.932833 0 0 0 52.079847,-13.379 V 89.789937 A 58.77128,24.932833 0 0 0 49.273963,76.411414 Z" /><path
       id="path1-1-1-8-4-2"
       style="fill:url(#linearGradient20);stroke-width:0.246321"
       d="M 52.278976,48.034551 A 57.050944,38.746969 0 0 0 3.8450064,66.305248 V 107.25878 A 57.050944,38.746969 0 0 0 52.278976,125.52899 57.050944,38.746969 0 0 0 101.38453,106.50625 V 67.056802 A 57.050944,38.746969 0 0 0 52.278976,48.034551 Z" /><path
       id="path1-1-1-8-4-2-8"
       style="fill:#ffffff;fill-opacity:1;stroke-width:0.261272"
       d="M 27.83536,38.920201 A 54.880912,45.317107 0 0 0 3.8447803,60.165369 V 97.469548 A 54.880912,45.317107 0 0 0 53.862146,124.13528 54.880912,45.317107 0 0 0 101.35381,101.52813 V 56.106786 A 54.880912,45.317107 0 0 0 79.887974,38.920201 Z" /><path
       id="path1-1"
       style="fill:url(#linearGradient3);stroke-width:0.260765"
       d="M 60.486333,129.51774 A 136.47655,18.109997 0 0 0 3.7538991,131.1566 v 12.87017 H 101.26163 v -13.68178 a 136.47655,18.109997 0 0 0 -40.775297,-0.82725 z" /><path
       id="path1"
       style="display:inline;fill:url(#linearGradient2);stroke-width:0.248853"
       d="M 52.633141,129.62322 A 62.296106,36.135759 0 0 0 3.7445565,143.36263 v 0.66414 H 101.26163 v -0.85362 A 62.296106,36.135759 0 0 0 52.633141,129.62322 Z" /><g
       id="g13"
       transform="matrix(0.92902288,0,0,0.94499273,-23.202871,58.927782)"
       style="display:inline;fill:#ffffff;fill-opacity:1" /><path
       id="path1-1-1-2"
       style="fill:url(#linearGradient42);stroke-width:0.246376"
       d="M 3.8699709,3.9732305 V 38.320521 A 88.701446,24.932833 0 0 0 52.487899,42.399124 88.701446,24.932833 0 0 0 101.38885,38.267781 V 3.9732305 Z" /><path
       id="path1-1-1-8-6"
       style="fill:url(#linearGradient43);stroke-width:0.24619"
       d="M 56.187285,64.515746 A 88.567369,24.932833 0 0 0 101.3568,61.029497 V 18.136223 A 88.567369,24.932833 0 0 0 56.187285,14.649956 88.567369,24.932833 0 0 0 3.8421101,19.470374 v 40.224983 a 88.567369,24.932833 0 0 0 52.3451749,4.820389 z" /><path
       id="path1-1-1-8-4-0"
       style="fill:url(#linearGradient44);stroke-width:0.20054"
       d="M 55.915075,55.456236 A 58.766649,24.932833 0 0 0 101.34045,46.341398 V 14.705361 A 58.766649,24.932833 0 0 0 55.915075,5.5900369 58.766649,24.932833 0 0 0 3.839333,18.969046 v 23.108667 a 58.766649,24.932833 0 0 0 52.075742,13.378523 z" /><path
       id="path1-1-1-8-4-2-1"
       style="fill:url(#linearGradient45);stroke-width:0.246282"
       d="M 52.921739,83.8331 A 57.032974,38.746969 0 0 0 101.34045,65.562403 V 24.608866 A 57.032974,38.746969 0 0 0 52.921739,6.3386602 57.032974,38.746969 0 0 0 3.8316516,25.361402 V 64.810849 A 57.032974,38.746969 0 0 0 52.921739,83.8331 Z" /><path
       id="path1-1-1-8-4-2-8-6"
       style="fill:#ffffff;fill-opacity:1;stroke-width:0.26131"
       d="M 77.379411,92.94745 A 54.897058,45.317107 0 0 0 101.37704,71.702282 V 34.398103 A 54.897058,45.317107 0 0 0 51.344967,7.7323732 54.897058,45.317107 0 0 0 3.839333,30.339519 V 75.760864 A 54.897058,45.317107 0 0 0 25.311482,92.94745 Z" /><g
       id="g13-4"
       transform="matrix(-0.92902288,0,0,-0.94499273,128.25775,72.939867)"
       style="display:inline;fill:#ffffff;fill-opacity:1" /><rect
       style="display:inline;fill:#ffffff;stroke:#80ffb3;stroke-width:0.655882;stroke-linecap:round;stroke-linejoin:round;stroke-miterlimit:5;stroke-dasharray:none;stroke-opacity:1"
       id="rect48"
       width="83.031174"
       height="35.856361"
       x="11.08968"
       y="81.367737"
       ry="2.3321838" /><rect
       style="display:inline;fill:#2b1e64;fill-opacity:1;stroke:#2b1e64;stroke-width:0.642062;stroke-linecap:round;stroke-linejoin:round;stroke-miterlimit:5;stroke-dasharray:none;stroke-opacity:1"
       id="rect77"
       width="96.887177"
       height="16.929371"
       x="4.1290874"
       y="126.74676"
       sodipodi:type="rect"
       ry="0" /><text
       xml:space="preserve"
       style="font-style:normal;font-variant:normal;font-weight:bold;font-stretch:normal;font-size:5.94978px;line-height:0;font-family:Inter;-inkscape-font-specification:'Inter Bold';text-align:center;writing-mode:lr-tb;direction:ltr;text-anchor:middle;fill:#ffffff;stroke:#000000;stroke-width:0.655882;stroke-linecap:round;stroke-linejoin:round;stroke-miterlimit:5;stroke-dasharray:none;stroke-opacity:1"
       x="55.11137"
       y="132.92645"
       id="text77"
       transform="scale(0.9915143,1.0085583)"><tspan
         sodipodi:role="line"
         id="tspan77"
         style="font-size:5.94978px;line-height:1.2;fill:#ffffff;fill-opacity:1;stroke:none;stroke-width:0.655882"
         x="55.11137"
         y="132.92645">SCAN &amp; <tspan
   style="fill:#d5ffd5;stroke-width:0.655882"
   id="tspan78">START METEEN</tspan></tspan><tspan
         sodipodi:role="line"
         style="font-size:4.62761px;line-height:1.1;fill:#ffffff;fill-opacity:1;stroke:none;stroke-width:0.655882"
         x="55.11137"
         y="138.644"
         id="tspan79">www.winprox.app</tspan></text><g
       id="g8"
       transform="matrix(0.02000658,0,0,0.02035049,8.784171,128.84351)"
       style="fill:#ffffff;stroke-width:24.2322;stroke-dasharray:none"><path
         d="M 255.928,322.6 C 166.992,322.6 94.632,250.24 94.632,161.304 94.632,72.36 166.984,0 255.928,0 c 88.944,0 161.304,72.36 161.304,161.304 0,88.936 -72.36,161.296 -161.304,161.296 z m 0,-306.6 c -80.12,0 -145.296,65.176 -145.296,145.304 0,80.12 65.176,145.296 145.296,145.296 80.128,0 145.304,-65.176 145.304,-145.296 C 401.232,81.176 336.048,16 255.928,16 Z"
         id="path1-5"
         style="fill:#ffffff;stroke-width:24.2322;stroke-dasharray:none" /><rect
         x="247.92799"
         y="3.3840001"
         width="16"
         height="307.76001"
         id="rect1-0"
         style="fill:#ffffff;stroke-width:24.2322;stroke-dasharray:none" /><rect
         x="102.392"
         y="153.328"
         width="310.14401"
         height="16"
         id="rect2"
         style="fill:#ffffff;stroke-width:24.2322;stroke-dasharray:none" /><path
         d="m 255.744,124.488 c -80.928,0 -113.2,-67.272 -114.536,-70.144 l 14.496,-6.768 c 0.008,0 0.008,0.008 0.008,0.016 v 0 c 1.28,2.704 29.648,60.888 100.04,60.888 70.816,0 98.96,-59.592 99.232,-60.192 l 14.544,6.672 c -1.304,2.84 -32.816,69.528 -113.784,69.528 z"
         id="path2-9"
         style="fill:#ffffff;stroke-width:24.2322;stroke-dasharray:none" /><path
         d="m 155.704,275.016 -14.496,-6.752 c 1.336,-2.864 33.608,-70.144 114.536,-70.144 80.968,0 112.48,66.68 113.784,69.512 l -14.544,6.672 c -1.136,-2.448 -28.752,-60.184 -99.232,-60.184 -70.848,0.008 -99.76,60.296 -100.048,60.896 z"
         id="path3-4"
         style="fill:#ffffff;stroke-width:24.2322;stroke-dasharray:none" /><path
         d="m 247.208,321.608 c -3.056,-2.792 -74.76,-69.464 -74.76,-160.304 0,-90.992 73.352,-155.2 76.48,-157.888 l 10.448,12.12 c -0.712,0.616 -70.92,62.24 -70.92,145.776 0,83.872 68.856,147.864 69.552,148.504 z"
         id="path4"
         style="fill:#ffffff;stroke-width:24.2322;stroke-dasharray:none" /><path
         d="m 264.648,321.608 -10.808,-11.8 c 0.696,-0.64 69.56,-64.832 69.56,-148.504 0,-83.728 -70.2,-145.16 -70.912,-145.768 l 10.44,-12.128 c 3.128,2.688 76.48,66.896 76.48,157.888 0,90.856 -71.704,157.528 -74.76,160.312 z"
         id="path5"
         style="fill:#ffffff;stroke-width:24.2322;stroke-dasharray:none" /></g><rect
       style="display:inline;mix-blend-mode:lighten;fill:#1291ff;fill-opacity:0.591922;stroke:none;stroke-width:0;stroke-dasharray:none"
       id="rect2-8"
       width="97.497757"
       height="122.54221"
       x="3.8540418"
       y="3.9655252" /><g
       style="fill:none;stroke:#b19026;stroke-width:2.00001851;stroke-linecap:round;stroke-linejoin:round;stroke-opacity:1;stroke-dasharray:none"
       id="g1"
       transform="matrix(0.69899353,0,0,0.69899353,13.523176,49.591374)"><path
         d="m 10.268,21 a 2,2 0 0 0 3.464,0"
         id="path1-82"
         style="stroke:#b19026;stroke-opacity:1;stroke-width:2.00001851;stroke-dasharray:none" /><path
         d="m 15,8 h 6"
         id="path2-45"
         style="stroke:#b19026;stroke-opacity:1;stroke-width:2.00001851;stroke-dasharray:none" /><path
         d="m 18,5 v 6"
         id="path3-5"
         style="stroke:#b19026;stroke-opacity:1;stroke-width:2.00001851;stroke-dasharray:none" /><path
         d="M 20.002,14.464 A 9,9 0 0 0 20.74,15.327 1,1 0 0 1 20,17 H 4 A 1,1 0 0 1 3.26,15.327 C 4.59,13.956 6,12.499 6,8 a 6,6 0 0 1 8.75,-5.332"
         id="path4-1"
         style="stroke:#b19026;stroke-opacity:1;stroke-width:2.00001851;stroke-dasharray:none" /></g><g
       style="fill:none;stroke:#b19026;stroke-width:2;stroke-linecap:round;stroke-linejoin:round;stroke-opacity:1"
       id="g3"
       transform="matrix(0.68181818,0,0,0.68181818,43.988503,49.258884)"><rect
         width="8"
         height="4"
         x="8"
         y="2"
         rx="0.38805556"
         ry="0.38805556"
         id="rect1-7"
         style="stroke:#b19026;stroke-opacity:1" /><path
         d="m 16,4 h 2 a 2,2 0 0 1 2,2 v 14 a 2,2 0 0 1 -2,2 H 6 A 2,2 0 0 1 4,20 V 6 A 2,2 0 0 1 6,4 h 2"
         id="path1-6"
         style="stroke:#b19026;stroke-opacity:1" /><path
         d="m 12,11 h 4"
         id="path2-1"
         style="stroke:#b19026;stroke-opacity:1" /><path
         d="m 12,16 h 4"
         id="path3-42"
         style="stroke:#b19026;stroke-opacity:1" /><path
         d="M 8,11 H 8.01"
         id="path4-3"
         style="stroke:#b19026;stroke-opacity:1" /><path
         d="M 8,16 H 8.01"
         id="path5-2"
         style="stroke:#b19026;stroke-opacity:1" /></g></g><g
     inkscape:groupmode="layer"
     id="layer3"
     inkscape:label="Laag 3"
     style="display:inline"><text
       xml:space="preserve"
       style="font-weight:600;font-size:8.46667px;line-height:6.54547px;font-family:Inter;-inkscape-font-specification:'Inter Semi-Bold';text-align:center;writing-mode:lr-tb;direction:ltr;text-anchor:middle;fill:#000000;stroke:#000000;stroke-width:0.203;stroke-linecap:round;stroke-linejoin:round;stroke-miterlimit:5;stroke-dasharray:none"
       x="58.163483"
       y="38.010746"
       id="text1"
       transform="scale(0.90610604,1.1036236)"><tspan
         sodipodi:role="line"
         id="tspan1"
         style="font-style:normal;font-variant:normal;font-weight:normal;font-stretch:normal;font-size:8.46667px;line-height:6.54547px;font-family:Inter;-inkscape-font-specification:Inter;stroke-width:0.203;stroke-dasharray:none"
         x="58.163483"
         y="38.010746">ALLES IN <tspan
   style="font-style:normal;font-variant:normal;font-weight:800;font-stretch:normal;font-size:9.87778px;font-family:Inter;-inkscape-font-specification:'Inter Ultra-Bold';fill:#00ff66;fill-opacity:1;stroke:#333333;stroke-width:0.203;stroke-dasharray:none"
   id="tspan38">1</tspan> OVERZICHT.</tspan></text><g
       id="layer1-2"
       transform="translate(24.071494,43.313457)"><text
         xml:space="preserve"
         style="font-style:normal;font-variant:normal;font-weight:normal;font-stretch:normal;font-size:4.93889px;font-family:Inter;-inkscape-font-specification:Inter;text-align:start;writing-mode:lr-tb;direction:ltr;text-anchor:start;display:inline;fill:#24221c;stroke-width:0.264583"
         x="-12.453771"
         y="29.200132"
         id="text1-7"
         inkscape:label="Meldingen die blijven liggen"><tspan
           sodipodi:role="line"
           style="font-style:normal;font-variant:normal;font-weight:bold;font-stretch:normal;font-size:4.23333px;font-family:Inter;-inkscape-font-specification:'Inter Bold';fill:#24221c;stroke-width:0.264583"
           x="-12.453771"
           y="29.200132"
           id="tspan2-1">meldingen</tspan><tspan
           sodipodi:role="line"
           style="font-style:normal;font-variant:normal;font-weight:bold;font-stretch:normal;font-size:4.93889px;font-family:Inter;-inkscape-font-specification:'Inter Bold';fill:#24221c;stroke-width:0.264583"
           x="-12.453771"
           y="35.373745"
           id="tspan5" /></text></g><text
       xml:space="preserve"
       transform="scale(0.26458333)"
       id="text3"
       style="font-style:normal;font-variant:normal;font-weight:bold;font-stretch:normal;font-size:18.6667px;line-height:0px;font-family:Inter;-inkscape-font-specification:'Inter Bold';text-align:center;writing-mode:lr-tb;direction:ltr;white-space:pre;shape-inside:url(#rect3);display:inline;fill:#00aa44;stroke:#008033;stroke-width:3.02362;stroke-linecap:round;stroke-linejoin:round;stroke-miterlimit:5;stroke-dasharray:none;stroke-opacity:1" /><g
       id="layer1-2-1"
       transform="translate(16.797,58.42271)"><text
         xml:space="preserve"
         style="font-style:normal;font-variant:normal;font-weight:normal;font-stretch:normal;font-size:4.93889px;font-family:Inter;-inkscape-font-specification:Inter;text-align:start;writing-mode:lr-tb;direction:ltr;text-anchor:start;display:inline;fill:#24221c;stroke-width:0.264583"
         x="53.399147"
         y="14.073309"
         id="text1-7-6"
         inkscape:label="Meldingen die blijven liggen"><tspan
           sodipodi:role="line"
           style="font-style:normal;font-variant:normal;font-weight:bold;font-stretch:normal;font-size:4.23333px;font-family:Inter;-inkscape-font-specification:'Inter Bold';fill:#24221c;stroke-width:0.264583"
           x="53.399147"
           y="14.073309"
           id="tspan2-1-5">afgehandeld</tspan><tspan
           sodipodi:role="line"
           style="font-style:normal;font-variant:normal;font-weight:bold;font-stretch:normal;font-size:4.93889px;font-family:Inter;-inkscape-font-specification:'Inter Bold';fill:#24221c;stroke-width:0.264583"
           x="53.399147"
           y="20.246922"
           id="tspan5-7" /></text></g><g
       id="layer1-2-1-3"
       transform="translate(21.834831,70.801702)"><text
         xml:space="preserve"
         style="font-style:normal;font-variant:normal;font-weight:normal;font-stretch:normal;font-size:4.93889px;font-family:Inter;-inkscape-font-specification:Inter;text-align:start;writing-mode:lr-tb;direction:ltr;text-anchor:start;display:inline;fill:#24221c;stroke-width:0.264583"
         x="24.910297"
         y="1.5909636"
         id="text1-7-6-3"
         inkscape:label="Meldingen die blijven liggen"><tspan
           sodipodi:role="line"
           style="font-style:normal;font-variant:normal;font-weight:bold;font-stretch:normal;font-size:4.23333px;font-family:Inter;-inkscape-font-specification:'Inter Bold';fill:#24221c;stroke-width:0.264583"
           x="24.910297"
           y="1.5909636"
           id="tspan5-7-1">taken</tspan><tspan
           sodipodi:role="line"
           style="font-style:normal;font-variant:normal;font-weight:bold;font-stretch:normal;font-size:4.93889px;font-family:Inter;-inkscape-font-specification:'Inter Bold';fill:#24221c;stroke-width:0.264583"
           x="24.910297"
           y="7.764576"
           id="tspan47" /></text></g><g
       id="layer1-2-1-3-2"
       transform="translate(12.900024,50.452007)" /><g
       id="g41"
       transform="translate(5.6155261)"><g
         id="g40"
         transform="matrix(0.92515399,0,0,0.92515399,1.0041547,2.0735749)"><path
           id="path28"
           style="display:inline;fill:url(#linearGradient26-4);fill-opacity:1;stroke:#ffffff;stroke-width:0;stroke-linecap:round;stroke-linejoin:miter;stroke-dasharray:none;stroke-opacity:1"
           inkscape:label="circle groen"
           d="m 21.18522,12.066547 a 7.7689591,7.7689591 0 0 0 -7.768944,7.769058 7.7689591,7.7689591 0 0 0 7.768944,7.768944 7.7689591,7.7689591 0 0 0 7.768944,-7.768944 7.7689591,7.7689591 0 0 0 -0.129389,-1.412034 l -1.663242,-0.294337 a 6.2151673,6.2151673 0 0 1 0.238819,1.706371 6.2151673,6.2151673 0 0 1 -6.215132,6.215132 6.2151673,6.2151673 0 0 1 -6.215247,-6.215132 6.2151673,6.2151673 0 0 1 6.215247,-6.215246 6.2151673,6.2151673 0 0 1 3.123453,0.841829 8.4348699,8.4348699 0 0 1 1.12871,-1.12871 7.7689591,7.7689591 0 0 0 -4.252163,-1.266931 z" /><path
           id="path23"
           style="display:inline;fill:#28220b;fill-opacity:1;stroke:#ffffff;stroke-width:0.2;stroke-linecap:round;stroke-linejoin:miter;stroke-dasharray:none;stroke-opacity:1"
           inkscape:label="circle zwart"
           d="m 30.810571,12.066547 a 7.7689591,7.7689591 0 0 0 -7.651944,6.425847 h 1.583521 a 6.2151673,6.2151673 0 0 1 6.068423,-4.872035 6.2151673,6.2151673 0 0 1 6.215135,6.215246 6.2151673,6.2151673 0 0 1 -6.215135,6.215132 6.2151673,6.2151673 0 0 1 -3.200421,-0.887368 8.3238848,8.3238848 0 0 1 -1.135249,1.118731 7.7689591,7.7689591 0 0 0 4.33567,1.322449 7.7689591,7.7689591 0 0 0 7.768948,-7.768944 7.7689591,7.7689591 0 0 0 -7.768948,-7.769058 z" /><path
           style="display:inline;fill:none;fill-opacity:1;stroke:#ffffff;stroke-width:3.55152;stroke-linecap:round;stroke-linejoin:round;stroke-dasharray:none;stroke-opacity:1"
           d="m 23.535541,19.555713 1.206254,2.089292 3.435472,-3.435473"
           id="path34"
           inkscape:label="vink wit" /><path
           style="display:inline;fill:none;fill-opacity:1;stroke:url(#linearGradient34);stroke-width:1.77576;stroke-linecap:round;stroke-linejoin:round;stroke-dasharray:none;stroke-opacity:1"
           d="m 23.535541,19.555713 1.206254,2.089292 3.435472,-3.435473"
           id="path33"
           inkscape:label="vink groen" /></g><g
         id="g39"
         transform="matrix(1.4152968,0,0,1.4152968,-18.668241,-10.871154)"><text
           xml:space="preserve"
           style="font-weight:bold;font-size:7.04756px;font-family:'Inter Variable';-inkscape-font-specification:'Inter Variable Bold';text-align:start;writing-mode:lr-tb;direction:ltr;text-anchor:start;display:inline;fill:#47b832;fill-opacity:0.358289;stroke:#ffffff;stroke-width:0;stroke-linecap:round;stroke-linejoin:round;stroke-dasharray:none;stroke-opacity:1"
           x="40.960381"
           y="26.176834"
           id="text35"
           inkscape:label="Win"><tspan
             sodipodi:role="line"
             id="tspan35"
             style="font-style:normal;font-variant:normal;font-weight:bold;font-stretch:normal;font-size:7.04756px;font-family:Inter;-inkscape-font-specification:'Inter Bold';fill:#000000;fill-opacity:1;stroke-width:0"
             x="40.960381"
             y="26.176834">Win<tspan
   style="font-size:7.04756px;fill:#89a02c;stroke-width:0"
   id="tspan36" /></tspan></text><text
           xml:space="preserve"
           style="font-style:normal;font-variant:normal;font-weight:bold;font-stretch:normal;font-size:7.04756px;font-family:Inter;-inkscape-font-specification:'Inter Bold';text-align:start;writing-mode:lr-tb;direction:ltr;text-anchor:start;display:inline;fill:url(#linearGradient38);stroke:#ffffff;stroke-width:0;stroke-linecap:round;stroke-linejoin:round;stroke-dasharray:none;stroke-opacity:1"
           x="54.57576"
           y="26.101128"
           id="text37"
           inkscape:label="Prox"><tspan
             sodipodi:role="line"
             id="tspan37"
             style="fill:url(#linearGradient38);stroke-width:0"
             x="54.57576"
             y="26.101128">Prox</tspan></text></g></g><g
       id="g77"
       transform="translate(-0.71684626,-1.2061734)"><g
         id="g48"
         transform="matrix(0.82741254,0,0,0.82741254,-19.508492,8.222262)"
         style="display:inline"><path
           d="m 50.801823,102.70365 c 0.325969,0 0.590238,0.26426 0.590238,0.59023 v 4.08391 l 1.353378,-1.35331 c 0.230507,-0.2305 0.604167,-0.2305 0.834675,0 0.230508,0.23051 0.230508,0.60417 0,0.83468 l -2.360953,2.36095 c -0.11065,0.11073 -0.260807,0.1729 -0.417338,0.1729 -0.156531,0 -0.306688,-0.0622 -0.417338,-0.1729 l -2.360977,-2.36095 c -0.230499,-0.23051 -0.230499,-0.60417 0,-0.83468 0.2305,-0.2305 0.604223,-0.2305 0.834723,0 l 1.353354,1.35331 v -4.08391 c 0,-0.32597 0.264269,-0.59023 0.590238,-0.59023 z"
           fill="#1c274c"
           id="path1-17"
           style="fill:#000000;stroke-width:0.786981" /><path
           d="m 47.063647,111.16373 c 0,-0.32597 0.264262,-0.59024 0.590239,-0.59024 h 6.295875 c 0.325969,0 0.590238,0.26427 0.590238,0.59024 0,0.32597 -0.264269,0.59024 -0.590238,0.59024 h -6.295875 c -0.325977,0 -0.590239,-0.26427 -0.590239,-0.59024 z"
           fill="#1c274c"
           id="path2"
           style="fill:#000000;stroke-width:0.786981" /><path
           fill-rule="evenodd"
           clip-rule="evenodd"
           d="m 50.75665,98.768723 c -1.816651,-6e-6 -3.240337,-1.7e-5 -4.351158,0.149333 -1.13698,0.152863 -2.034158,0.471858 -2.73836,1.176064 -0.704201,0.7042 -1.023197,1.60137 -1.176061,2.73836 -0.149346,1.11081 -0.149338,2.5345 -0.14933,4.35115 v 0.0904 c -8e-6,1.81668 -1.6e-5,3.24033 0.14933,4.35116 0.152864,1.13696 0.47186,2.0342 1.176061,2.73839 0.704202,0.70419 1.60138,1.02316 2.73836,1.17607 1.110821,0.14929 2.534507,0.14929 4.351158,0.14929 H 50.847 c 1.816675,0 3.24033,0 4.351158,-0.14929 1.136956,-0.15291 2.034198,-0.47188 2.738391,-1.17607 0.704194,-0.70419 1.023159,-1.60143 1.176069,-2.73839 0.149292,-1.11083 0.149292,-2.53448 0.149292,-4.35116 v -0.0904 c 0,-1.81665 0,-3.24034 -0.149292,-4.35115 -0.15291,-1.13699 -0.471875,-2.03416 -1.176069,-2.73836 C 57.232356,99.389914 56.335114,99.070919 55.198158,98.918056 54.08733,98.768706 52.663675,98.768717 50.847,98.768723 Z m -6.254795,2.160117 c 0.448306,-0.44832 1.054851,-0.70557 2.06094,-0.84084 1.023064,-0.137546 2.367398,-0.1388 4.239028,-0.1388 1.871607,0 3.215933,0.0012 4.239013,0.1388 1.006081,0.13527 1.612609,0.39252 2.060955,0.84084 0.448345,0.4483 0.70561,1.05485 0.840814,2.06094 0.137564,1.02306 0.138824,2.3674 0.138824,4.23903 0,1.8716 -0.0013,3.21593 -0.138824,4.23901 -0.135204,1.00608 -0.392469,1.61261 -0.840814,2.06096 -0.448346,0.44834 -1.054874,0.7056 -2.060955,0.84081 -1.02308,0.13756 -2.367406,0.13882 -4.239013,0.13882 -1.87163,0 -3.215964,-0.001 -4.239028,-0.13882 -1.006089,-0.13521 -1.612634,-0.39247 -2.06094,-0.84081 -0.448313,-0.44835 -0.70557,-1.05488 -0.840837,-2.06096 -0.137549,-1.02308 -0.1388,-2.36741 -0.1388,-4.23901 0,-1.87163 0.0013,-3.21597 0.1388,-4.23903 0.135267,-1.00609 0.392524,-1.61264 0.840837,-2.06094 z"
           fill="#1c274c"
           id="path3"
           style="fill:#000000;stroke-width:0.786981" /></g><path
         d="m 90.50552,92.480064 c 0,-0.514549 -0.417138,-0.932152 -0.932153,-0.932152 h -1.591184 c 0.412011,-0.40642 0.675344,-0.938679 0.675344,-1.594447 0,-0.807244 -0.463746,-1.684866 -1.765497,-1.684866 -1.71283,0 -3.143684,1.823756 -3.816232,2.845861 -0.673015,-1.022105 -2.147214,-2.845861 -3.860045,-2.845861 -1.30175,0 -1.765497,0.877155 -1.765497,1.684399 0,0.655769 0.27079,1.188494 0.690724,1.594447 h -1.618215 c -0.515015,0 -0.932153,0.417605 -0.932153,0.932152 v 2.789934 h 0.940542 v 6.066919 c 0,0.51501 0.417137,0.93215 0.932152,0.93215 h 11.181171 c 0.515014,0 0.932153,-0.41714 0.932153,-0.93215 v -6.067385 h 0.928423 v -2.789933 z m -3.61349,-3.278381 c 0.576071,0 0.833345,0.242359 0.833345,0.752714 0,1.035155 -1.155404,1.59398 -2.242293,1.59398 h -1.578136 c 0.662296,-0.983887 1.827953,-2.346694 2.987084,-2.346694 z m -7.675811,0 c 1.159133,0 2.369067,1.362807 3.031361,2.346229 h -1.578135 c -1.08689,0 -2.286104,-0.572809 -2.286104,-1.60843 0,-0.510354 0.256808,-0.737799 0.833344,-0.737799 z m 10.357148,5.136627 h -6.058992 v -1.85778 h 6.058992 z M 76.523231,92.480064 h 6.058991 v 1.857781 h -6.058991 z m 0.940542,2.790399 h 5.118449 v 6.067387 h -5.118449 z m 11.181171,6.067387 h -5.130569 v -6.06692 h 5.130569 z"
         id="path1-14"
         style="display:inline;stroke-width:0.466076"
         sodipodi:nodetypes="cscsscsscssccssssccccssscsccsscccccccccccccccccccccc" /><g
         id="g2"
         transform="matrix(0.71794873,0,0,0.71794873,44.458266,88.192618)"
         style="display:inline;fill:#ffffff;stroke:#000000"><path
           d="M 14.5,11.5 12,14 m 0,0 -2.5,2.5 M 12,14 9.50002,11.5 M 12,14 14.5,16.5 M 13,3 H 5 v 2 m 8,-2 h 1 l 5,5 V 9 M 13,3 v 4 c 0,1 1,2 2,2 h 4 m 0,0 v 3 M 5,10 v 11 h 14 v -5"
           stroke="#000000"
           stroke-width="1.5"
           stroke-linecap="round"
           stroke-linejoin="round"
           id="path1-9"
           style="fill:#ffffff;stroke:#000000" /></g><g
         id="g50"
         transform="translate(25.052656,80.802918)"><text
           xml:space="preserve"
           style="font-style:normal;font-variant:normal;font-weight:normal;font-stretch:normal;font-size:4.93889px;line-height:0;font-family:Inter;-inkscape-font-specification:Inter;text-align:start;writing-mode:lr-tb;direction:ltr;text-anchor:start;display:inline;fill:#24221c;stroke-width:0.264583"
           x="-2.5536077"
           y="29.200132"
           id="text50"
           inkscape:label="Meldingen die blijven liggen"><tspan
             sodipodi:role="line"
             style="font-style:normal;font-variant:normal;font-weight:bold;font-stretch:normal;font-size:4.23333px;line-height:1.25;font-family:Inter;-inkscape-font-specification:'Inter Bold';text-align:center;text-anchor:middle;fill:#24221c;stroke-width:0.264583"
             x="-2.5536079"
             y="29.200132"
             id="tspan49">Geen</tspan><tspan
             style="font-style:normal;font-variant:normal;font-weight:500;font-stretch:normal;font-size:3.88056px;line-height:1.2;font-family:Inter;-inkscape-font-specification:'Inter Medium';text-align:center;text-anchor:middle;fill:#24221c;stroke-width:0.264583"
             sodipodi:role="line"
             id="tspan73"
             x="-2.5536072"
             y="34.068241">installatie</tspan><tspan
             sodipodi:role="line"
             style="font-style:normal;font-variant:normal;font-weight:bold;font-stretch:normal;font-size:4.93889px;line-height:1.25;font-family:Inter;-inkscape-font-specification:'Inter Bold';text-align:center;text-anchor:middle;fill:#24221c;stroke-width:0.264583"
             x="-2.5536077"
             y="36.71476"
             id="tspan50" /></text></g><g
         id="g50-6"
         transform="translate(55.60073,80.802918)"
         style="display:inline"><text
           xml:space="preserve"
           style="font-style:normal;font-variant:normal;font-weight:normal;font-stretch:normal;font-size:4.93889px;line-height:0;font-family:Inter;-inkscape-font-specification:Inter;text-align:start;writing-mode:lr-tb;direction:ltr;text-anchor:start;display:inline;fill:#24221c;stroke-width:0.264583"
           x="-2.5536077"
           y="29.200132"
           id="text50-6"
           inkscape:label="Meldingen die blijven liggen"><tspan
             sodipodi:role="line"
             style="font-style:normal;font-variant:normal;font-weight:bold;font-stretch:normal;font-size:4.23333px;line-height:1.25;font-family:Inter;-inkscape-font-specification:'Inter Bold';text-align:center;text-anchor:middle;fill:#24221c;stroke-width:0.264583"
             x="-2.5536079"
             y="29.200132"
             id="tspan49-0">Geen</tspan><tspan
             style="font-style:normal;font-variant:normal;font-weight:500;font-stretch:normal;font-size:3.88056px;line-height:1.2;font-family:Inter;-inkscape-font-specification:'Inter Medium';text-align:center;text-anchor:middle;fill:#24221c;stroke-width:0.264583"
             sodipodi:role="line"
             id="tspan73-3"
             x="-2.5536079"
             y="34.068241">verplichtingen</tspan><tspan
             sodipodi:role="line"
             style="font-style:normal;font-variant:normal;font-weight:bold;font-stretch:normal;font-size:4.93889px;line-height:1.25;font-family:Inter;-inkscape-font-specification:'Inter Bold';text-align:center;text-anchor:middle;fill:#24221c;stroke-width:0.264583"
             x="-2.5536077"
             y="36.71476"
             id="tspan50-8" /></text></g><g
         id="g76"
         transform="translate(85.575146,80.802918)"><text
           xml:space="preserve"
           style="font-style:normal;font-variant:normal;font-weight:normal;font-stretch:normal;font-size:4.93889px;line-height:0;font-family:Inter;-inkscape-font-specification:Inter;text-align:start;writing-mode:lr-tb;direction:ltr;text-anchor:start;display:inline;fill:#24221c;stroke-width:0.264583"
           x="-2.5536077"
           y="29.200132"
           id="text76"
           inkscape:label="Meldingen die blijven liggen"><tspan
             sodipodi:role="line"
             style="font-style:normal;font-variant:normal;font-weight:bold;font-stretch:normal;font-size:4.23333px;line-height:1.25;font-family:Inter;-inkscape-font-specification:'Inter Bold';text-align:center;text-anchor:middle;fill:#24221c;stroke-width:0.264583"
             x="-2.5536075"
             y="29.200132"
             id="tspan74">1 MAAND</tspan><tspan
             style="font-style:normal;font-variant:normal;font-weight:bold;font-stretch:normal;font-size:3.88056px;line-height:1.2;font-family:Inter;-inkscape-font-specification:'Inter Bold';text-align:center;text-anchor:middle;fill:#00ff66;fill-opacity:1;stroke-width:0.264583"
             sodipodi:role="line"
             id="tspan75"
             x="-2.5536077"
             y="34.068241">GRATIS</tspan><tspan
             sodipodi:role="line"
             style="font-style:normal;font-variant:normal;font-weight:bold;font-stretch:normal;font-size:4.93889px;line-height:1.25;font-family:Inter;-inkscape-font-specification:'Inter Bold';text-align:center;text-anchor:middle;fill:#24221c;stroke-width:0.264583"
             x="-2.5536077"
             y="36.71476"
             id="tspan76" /></text></g></g><g
       style="fill:none;stroke:#b19026;stroke-width:2;stroke-linecap:round;stroke-linejoin:round;stroke-opacity:1"
       id="g5"
       transform="matrix(0.65657863,0,0,0.65657863,74.220716,50.247548)"><path
         d="M 21,10.656 V 19 a 2,2 0 0 1 -2,2 H 5 A 2,2 0 0 1 3,19 V 5 A 2,2 0 0 1 5,3 h 12.344"
         id="path1-8"
         style="stroke:#b19026;stroke-opacity:1" /><path
         d="M 9,11 12,14 22,4"
         id="path2-5"
         style="stroke:#b19026;stroke-opacity:1" /></g></g></svg>
